<?xml version="1.0" encoding="UTF-8" standalone="no"?>
<svg
   xmlns:dc="http://purl.org/dc/elements/1.1/"
   xmlns:cc="http://creativecommons.org/ns#"
   xmlns:rdf="http://www.w3.org/1999/02/22-rdf-syntax-ns#"
   xmlns:svg="http://www.w3.org/2000/svg"
   xmlns="http://www.w3.org/2000/svg"
   xmlns:sodipodi="http://sodipodi.sourceforge.net/DTD/sodipodi-0.dtd"
   xmlns:inkscape="http://www.inkscape.org/namespaces/inkscape"
   height="70.400002"
   width="90"
   id="svg2"
   xml:space="preserve"
   enable-background="new 0 0 100 100"
   viewBox="0 0 90 70.400002"
   y="0px"
   x="0px"
   version="1.1"
   inkscape:version="0.91 r13725"
   sodipodi:docname="favicon.ico.svg"><sodipodi:namedview
     pagecolor="#ffffff"
     bordercolor="#666666"
     borderopacity="1"
     objecttolerance="10"
     gridtolerance="10"
     guidetolerance="10"
     inkscape:pageopacity="0"
     inkscape:pageshadow="2"
     inkscape:window-width="1039"
     inkscape:window-height="827"
     id="namedview4210"
     showgrid="false"
     inkscape:zoom="3.3522727"
     inkscape:cx="1.7457618"
     inkscape:cy="35.200001"
     inkscape:window-x="0"
     inkscape:window-y="0"
     inkscape:window-maximized="0"
     inkscape:current-layer="svg2" /><metadata
     id="metadata60"><rdf:RDF><cc:Work
         rdf:about=""><dc:format>image/svg+xml</dc:format><dc:type
           rdf:resource="http://purl.org/dc/dcmitype/StillImage" /><dc:title></dc:title></cc:Work></rdf:RDF></metadata><defs
     id="defs58" /><g
     transform="translate(-5,-14.8)"
     style="display:none"
     id="g4"
     display="none"><path
       style="display:inline"
       id="path6"
       d="M 70.6,75.1 60,42.1 C 63.6,39.2 65.9,34.8 65.9,29.8 65.9,21.1 58.8,14 50,14 c -8.7,0 -15.9,7.1 -15.9,15.8 0,5 2.3,9.4 5.9,12.3 l -10.6,33 c 0,0.2 -0.1,0.3 -0.1,0.5 0,3 2.3,5.7 6.5,7.7 3.8,1.7 8.9,2.7 14.2,2.7 5.3,0 10.4,-1 14.2,-2.7 4.2,-1.9 6.5,-4.7 6.5,-7.7 -0.1,-0.2 -0.1,-0.4 -0.1,-0.5 z M 37.2,29.8 c 0,-7 5.7,-12.7 12.8,-12.7 7.1,0 12.8,5.7 12.8,12.7 0,7 -5.7,12.7 -12.8,12.7 -7.1,0 -12.8,-5.7 -12.8,-12.7 z M 50,82.9 C 39.8,82.9 32.7,79.2 32.4,75.7 L 42.7,43.8 c 2.2,1.1 4.7,1.8 7.3,1.8 2.6,0 5.1,-0.6 7.3,-1.8 l 10.3,31.9 c -0.3,3.5 -7.4,7.2 -17.6,7.2 z"
       display="inline" /></g><g
     transform="translate(-5,-14.8)"
     style="display:none"
     id="g8"
     display="none"><path
       style="display:inline"
       id="path10"
       d="M 70.6,75.1 60,42.1 c 3.6,-2.9 5.9,-7.3 5.9,-12.3 0,-1.2 -0.1,-2.3 -0.4,-3.4 l 0.4,0 c 0.8,0 1.5,-0.7 1.5,-1.5 0,-0.8 -0.7,-1.5 -1.5,-1.5 l -1.4,0 C 62,17.9 56.5,14 50,14 c -8.7,0 -15.9,7.1 -15.9,15.8 0,5 2.3,9.4 5.9,12.3 l -10.6,33 c 0,0.2 -0.1,0.3 -0.1,0.5 0,3 2.3,5.7 6.5,7.7 3.8,1.7 8.9,2.7 14.2,2.7 5.3,0 10.4,-1 14.2,-2.7 4.2,-1.9 6.5,-4.7 6.5,-7.7 -0.1,-0.2 -0.1,-0.4 -0.1,-0.5 z m -13.5,-47.9 0,1.2 c 0,0.4 -0.4,0.8 -0.8,0.8 l -2.4,0 c -0.4,0 -0.8,-0.4 -0.8,-0.8 l 0,-1.2 c 0,-0.4 0.4,-0.8 0.8,-0.8 l 2.4,0 c 0.4,0.1 0.8,0.4 0.8,0.8 z m -11.3,0 0,1.2 c 0,0.4 -0.4,0.8 -0.8,0.8 l -2.4,0 c -0.4,0 -0.8,-0.4 -0.8,-0.8 l 0,-1.2 c 0,-0.4 0.4,-0.8 0.8,-0.8 l 2.1,0 0.3,0 c 0.4,0.1 0.8,0.4 0.8,0.8 z m -8.6,2.6 c 0,-7 5.7,-12.7 12.8,-12.7 4.7,0 8.8,2.5 11,6.3 l -4.8,0 -2.4,0 -8.8,0 -0.3,0 -2.1,0 c -2.1,0 -3.8,1.7 -3.8,3.8 l 0,1.2 c 0,2.1 1.7,3.8 3.8,3.8 l 2.4,0 c 2.1,0 3.8,-1.7 3.8,-3.8 l 0,-1.2 c 0,-0.3 0,-0.5 -0.1,-0.8 l 1.4,0 c 0,0.3 -0.1,0.6 -0.1,0.8 l 0,1.2 c 0,2.1 1.7,3.8 3.8,3.8 l 2.4,0 c 2.1,0 3.8,-1.7 3.8,-3.8 l 0,-1.2 c 0,-0.3 0,-0.5 -0.1,-0.8 l 2.3,0 c 0.3,1.1 0.5,2.2 0.5,3.4 0,7 -5.7,12.7 -12.8,12.7 -7,0 -12.7,-5.7 -12.7,-12.7 z M 50,82.9 C 39.8,82.9 32.7,79.2 32.4,75.7 L 42.7,43.8 c 2.2,1.1 4.7,1.8 7.3,1.8 2.6,0 5.1,-0.6 7.3,-1.8 l 10.3,31.9 c -0.3,3.5 -7.4,7.2 -17.6,7.2 z"
       display="inline" /></g><g
     transform="translate(-5,-14.8)"
     style="display:none"
     id="g12"
     display="none"><path
       style="display:inline"
       id="path14"
       d="M 70.6,75.1 60,42.1 C 63.6,39.2 65.9,34.8 65.9,29.8 65.9,21.1 58.8,14 50,14 c -8.7,0 -15.9,7.1 -15.9,15.8 0,0.5 0,0.9 0.1,1.3 -0.4,0.1 -0.8,0.3 -1.3,0.4 -0.8,0.2 -1.3,1.1 -1,1.9 0.2,0.7 0.8,1.1 1.5,1.1 0.1,0 0.3,0 0.4,-0.1 0.3,-0.1 0.6,-0.2 1,-0.3 0.9,3.1 2.8,5.9 5.3,7.9 L 29.5,75 c 0,0.2 -0.1,0.3 -0.1,0.5 0,3 2.3,5.7 6.5,7.7 3.7,1.8 8.8,2.8 14.1,2.8 5.3,0 10.4,-1 14.2,-2.7 4.2,-1.9 6.5,-4.7 6.5,-7.7 -0.1,-0.2 -0.1,-0.4 -0.1,-0.5 z m -8,-47.6 c -2.8,-2.1 -5.2,-4.4 -7.1,-6.9 0.4,-0.5 0.8,-1 1.2,-1.6 3.1,1.9 5.2,4.9 5.9,8.5 z m -25.4,2.3 c 0,-7 5.7,-12.7 12.8,-12.7 1.4,0 2.7,0.2 3.9,0.6 -2.7,3.6 -6.7,6.9 -11.7,9.8 -1.7,1 -3.3,1.8 -5,2.5 0,-0.1 0,-0.1 0,-0.2 z m 0.4,3.3 c 2.1,-0.8 4.1,-1.8 6.1,-3 3.8,-2.2 7,-4.6 9.7,-7.3 2.4,3.1 5.6,6 9.3,8.4 -0.7,6.4 -6.2,11.3 -12.7,11.3 -5.9,0 -10.9,-4 -12.4,-9.4 z M 50,82.9 C 39.8,82.9 32.7,79.2 32.4,75.7 L 42.7,43.8 c 2.2,1.1 4.7,1.8 7.3,1.8 2.6,0 5.1,-0.6 7.3,-1.8 l 10.3,31.9 c -0.3,3.5 -7.4,7.2 -17.6,7.2 z"
       display="inline" /></g><g
     transform="translate(-5,-14.8)"
     style="display:none"
     id="g16"
     display="none"><path
       style="display:inline"
       id="path18"
       d="m 91.4,70.4 -7,-21.7 c 2.4,-2 3.9,-5 3.9,-8.4 0,-6.1 -5,-11 -11.1,-11 -6.1,0 -11.1,4.9 -11.1,11 0,3.3 1.5,6.3 3.9,8.4 L 66,60.9 59.9,42.1 C 63.5,39.2 65.8,34.8 65.8,29.8 65.9,21.1 58.8,14 50,14 c -8.7,0 -15.9,7.1 -15.9,15.8 0,5 2.3,9.4 5.9,12.3 L 34,60.9 30.1,48.7 c 2.4,-2 3.9,-5 3.9,-8.4 0,-6.1 -5,-11 -11.1,-11 -6.1,0 -11.1,4.9 -11.1,11 0,3.3 1.5,6.3 3.9,8.4 l -7,21.7 c 0,0.2 -0.1,0.3 -0.1,0.5 0,4.3 6.1,7.5 14.3,7.5 2.4,0 4.8,-0.3 6.8,-0.9 0.8,2.2 2.9,4.2 6.2,5.8 3.7,1.7 8.8,2.7 14.1,2.7 5.3,0 10.4,-1 14.2,-2.7 3.3,-1.5 5.4,-3.5 6.2,-5.8 2.1,0.6 4.4,0.9 6.8,0.9 8.1,0 14.3,-3.2 14.3,-7.5 -0.1,-0.2 -0.1,-0.4 -0.1,-0.5 z m -22.3,-30 c 0,-4.4 3.6,-8 8,-8 4.4,0 8,3.6 8,8 0,4.4 -3.6,8 -8,8 -4.4,0 -8,-3.6 -8,-8 z M 37.2,29.8 c 0,-7 5.7,-12.7 12.8,-12.7 7.1,0 12.8,5.7 12.8,12.7 0,7 -5.7,12.7 -12.8,12.7 -7.1,0 -12.8,-5.7 -12.8,-12.7 z M 14.8,40.4 c 0,-4.4 3.6,-8 8,-8 4.4,0 8,3.6 8,8 0,4.4 -3.6,8 -8,8 -4.4,-0.1 -8,-3.6 -8,-8 z M 11.6,71 18.2,50.4 c 1.4,0.6 2.9,1 4.6,1 1.6,0 3.2,-0.4 4.5,-1 l 5,15.5 -2.7,8.3 c -2,0.7 -4.4,1 -6.9,1 C 16.1,75.3 11.9,72.9 11.6,71 Z M 50,82.9 C 39.8,82.9 32.7,79.2 32.4,75.7 L 42.7,43.8 c 2.2,1.1 4.7,1.8 7.3,1.8 2.6,0 5.1,-0.6 7.3,-1.8 l 10.3,31.9 c -0.3,3.5 -7.4,7.2 -17.6,7.2 z m 27.2,-7.6 c -2.5,0 -4.9,-0.4 -6.9,-1 l -2.7,-8.3 5,-15.5 c 1.4,0.6 2.9,1 4.6,1 1.6,0 3.2,-0.4 4.5,-1 L 88.4,71 c -0.3,1.9 -4.5,4.3 -11.2,4.3 z"
       display="inline" /></g><g
     transform="translate(-5,-14.8)"
     style="display:none"
     id="g20"
     display="none"><path
       style="display:inline"
       id="path22"
       d="m 82.6,58.2 0.8,0 c 0.7,0 1.2,-0.5 1.2,-1.2 l 0,-4.1 c 0,-0.7 -0.5,-1.2 -1.2,-1.2 l -0.8,0 c -0.1,0 -0.3,0 -0.4,0.1 -0.4,-3.1 -3.1,-5.5 -6.4,-5.5 -1.8,0 -3.4,0.7 -4.6,1.9 l -0.8,-2.3 c 2.4,-2 3.9,-5 3.9,-8.4 0,-6.1 -5,-11 -11.1,-11 -6.1,0 -11.1,4.9 -11.1,11 0,3.3 1.5,6.3 3.9,8.4 L 52.1,58 46,39.2 c 3.6,-2.9 5.9,-7.3 5.9,-12.3 0,-8.7 -7.1,-15.8 -15.9,-15.8 -8.7,0 -15.9,7.1 -15.9,15.8 0,5 2.3,9.4 5.9,12.3 l -10.6,33 c 0,0.2 -0.1,0.3 -0.1,0.5 0,3 2.3,5.7 6.5,7.7 1.4,0.7 3,1.2 4.7,1.6 l 0,5.5 c 0,0.8 0.7,1.5 1.5,1.5 0.8,0 1.5,-0.7 1.5,-1.5 l 0,-4.8 c 2,0.3 4.2,0.5 6.4,0.5 5.3,0 10.4,-1 14.2,-2.7 3.3,-1.5 5.4,-3.5 6.2,-5.8 2.1,0.6 4.4,0.9 6.8,0.9 1.3,0 2.5,-0.1 3.7,-0.2 l 0,0.1 c 0,0.7 0.5,1.2 1.2,1.2 l 1,0 c 0.1,0 0.3,0 0.4,-0.1 0.4,3.1 3.1,5.5 6.4,5.5 3.2,0 5.9,-2.4 6.4,-5.5 0.1,0 0.3,0.1 0.4,0.1 l 0.8,0 c 0.7,0 1.2,-0.5 1.2,-1.2 l 0,-4.1 c 0,-0.7 -0.5,-1.2 -1.2,-1.2 l -0.8,0 c -0.1,0 -0.2,0 -0.3,0.1 l 0,-12.1 c 0,0 0.1,0 0.3,0 z m -10.2,-1.7 6.8,0 0,15.1 -6.8,0 0,-15.1 z m 3.4,-7.2 c 1.9,0 3.4,1.5 3.4,3.4 l 0,0.7 -6.8,0 0,-0.7 c 0,-1.9 1.5,-3.4 3.4,-3.4 z M 55.2,37.4 c 0,-4.4 3.6,-8 8,-8 4.4,0 8,3.6 8,8 0,4.4 -3.6,8 -8,8 -4.4,0 -8,-3.6 -8,-8 z m -32,-10.5 c 0,-7 5.7,-12.7 12.8,-12.7 7.1,0 12.8,5.7 12.8,12.7 0,7 -5.7,12.7 -12.8,12.7 -7,0 -12.8,-5.7 -12.8,-12.7 z M 36,80 c -2.3,0 -4.4,-0.2 -6.4,-0.5 l 0,-17.9 c 0,-2.9 2.4,-5.2 5.2,-5.2 2.9,0 5.2,2.4 5.2,5.2 0,0.8 0.7,1.5 1.5,1.5 0.8,0 1.5,-0.7 1.5,-1.5 0,-4.6 -3.7,-8.3 -8.3,-8.3 -4.6,0 -8.3,3.7 -8.3,8.3 l 0,17.2 C 21.5,77.4 18.5,75.1 18.3,72.9 L 28.6,41 c 2.2,1.1 4.7,1.8 7.3,1.8 2.6,0 5.1,-0.6 7.3,-1.8 l 7.2,22.3 c 0,0.2 0.1,0.3 0.2,0.5 l 2.9,9.1 C 53.3,76.2 46.2,80 36,80 Z M 68.1,69.9 c -0.7,0 -1.2,0.5 -1.2,1.2 l 0,1 c -0.1,0 -0.2,0 -0.3,0 -1.1,0.2 -2.2,0.2 -3.4,0.2 -2.5,0 -4.9,-0.4 -6.9,-1 l -2.6,-8.3 5,-15.5 c 1.4,0.6 2.9,1 4.6,1 1.6,0 3.2,-0.4 4.5,-1 l 1.4,4.2 c -0.1,0 -0.1,0 -0.2,0 l -0.8,0 c -0.7,0 -1.2,0.5 -1.2,1.2 l 0,4.1 c 0,0.7 0.5,1.2 1.2,1.2 l 0.8,0 c 0.1,0 0.2,0 0.3,-0.1 l 0,11.8 c -0.1,0 -0.2,-0.1 -0.3,-0.1 l -0.9,0 z m 7.7,8.9 c -1.9,0 -3.4,-1.5 -3.4,-3.4 l 0,-0.7 6.8,0 0,0.7 c 0,1.9 -1.6,3.4 -3.4,3.4 z"
       display="inline" /></g><g
     transform="translate(-5,-14.8)"
     style="display:none"
     id="g24"
     display="none"><g
       style="display:inline"
       id="g26"
       display="inline"><path
         id="path28"
         d="m 71.5,44 -6.1,-3.5 c 0,-1 -0.6,-1.8 -1.3,-2.3 l 0,-9.2 c 0,-0.8 -0.7,-1.5 -1.5,-1.5 -0.8,0 -1.5,0.7 -1.5,1.5 l 0,9.2 c -0.8,0.5 -1.3,1.4 -1.3,2.4 0,1.6 1.3,2.9 2.9,2.9 0.5,0 0.9,-0.1 1.3,-0.3 l 6.1,3.5 c 0.2,0.1 0.5,0.2 0.8,0.2 0.5,0 1,-0.3 1.3,-0.8 0.3,-0.7 0.1,-1.6 -0.7,-2.1 z" /><path
         id="path30"
         d="m 62.6,21.9 c -3,0 -5.9,0.7 -8.5,2 C 51.7,18.1 46,14 39.3,14 c -8.7,0 -15.9,7.1 -15.9,15.8 0,5 2.3,9.4 5.9,12.3 l -10.6,33 c 0,0.2 -0.1,0.3 -0.1,0.5 0,3 2.3,5.7 6.5,7.7 C 29,85 34,86 39.3,86 c 5.3,0 10.4,-1 14.2,-2.7 4.2,-1.9 6.5,-4.7 6.5,-7.7 0,-0.2 0,-0.3 -0.1,-0.5 L 54.2,57.4 c 2.6,1.3 5.4,2 8.3,2 C 72.8,59.4 81.2,51 81.2,40.7 81.3,30.3 72.9,21.9 62.6,21.9 Z m -36.1,7.9 c 0,-7 5.7,-12.7 12.8,-12.7 5.9,0 10.8,4 12.3,9.3 0,0.1 0,0.2 0.1,0.3 0.2,1 0.4,2 0.4,3.1 0,7 -5.7,12.7 -12.8,12.7 -7,0 -12.8,-5.7 -12.8,-12.7 z M 39.3,82.9 C 29.1,82.9 22,79.2 21.7,75.7 L 32,43.8 c 2.2,1.1 4.7,1.8 7.3,1.8 2.6,0 5.1,-0.6 7.3,-1.8 l 3.3,10.3 c 0,0.1 0,0.2 0.1,0.3 l 6.9,21.4 c -0.3,3.4 -7.4,7.1 -17.6,7.1 z M 62.6,56.3 c -3.6,0 -7,-1.2 -9.8,-3.4 L 49.3,42.1 c 3.6,-2.9 5.9,-7.3 5.9,-12.3 0,-1 -0.1,-2 -0.3,-2.9 2.3,-1.3 4.9,-2 7.6,-2 8.6,0 15.7,7 15.7,15.7 0,8.7 -7,15.7 -15.6,15.7 z" /></g></g><g
     transform="translate(-5,-14.8)"
     style="display:none"
     id="g32"
     display="none"><path
       style="display:inline"
       id="path34"
       d="M 70.6,78.2 59.9,45 c 3.6,-2.9 5.9,-7.3 5.9,-12.3 0,-2.4 -0.6,-4.8 -1.6,-6.9 0,-0.1 0.1,-0.3 0.1,-0.4 l 0,-12.8 C 64.3,12 64,11.5 63.5,11.2 63,10.9 62.4,11 61.9,11.3 c -0.4,0.3 -1.8,0.9 -2.6,1.3 -0.6,0.2 -0.9,0.8 -0.9,1.4 0,2.3 -0.9,3.9 -2.2,3.9 -1.5,0 -2.2,-0.8 -2.2,-2.5 0,-0.4 -0.2,-0.8 -0.5,-1.1 -0.3,-0.3 -0.7,-0.4 -1.1,-0.4 -1.5,0.1 -3,0.1 -4.6,0 -0.4,0 -0.8,0.1 -1.1,0.4 -0.3,0.3 -0.5,0.7 -0.5,1.1 0,1.8 -0.7,2.5 -2.2,2.5 -1.3,0 -2.2,-1.7 -2.2,-3.9 0,-0.6 -0.4,-1.2 -0.9,-1.4 -0.8,-0.4 -2.2,-1 -2.6,-1.3 -0.5,-0.3 -1.1,-0.4 -1.6,-0.1 -0.5,0.3 -0.8,0.8 -0.8,1.4 l 0,12.8 c 0,0.2 0,0.3 0.1,0.5 -1,2.1 -1.6,4.5 -1.6,6.8 0,5 2.3,9.4 5.9,12.3 L 29.4,78.2 c -0.1,3.1 2.2,5.9 6.5,7.9 3.8,1.8 8.8,2.7 14.2,2.7 5.3,0 10.4,-1 14.2,-2.7 4.2,-1.9 6.5,-4.8 6.3,-7.9 z M 38.7,15.9 c 0.2,1.2 0.6,2.2 1.2,3.1 1,1.3 2.4,2.1 3.9,2.1 2.7,0 4.6,-1.5 5.1,-4 0.7,0 1.3,0 2,0 0.5,2.5 2.4,4 5.1,4 1.5,0 2.9,-0.7 3.9,-2.1 0.6,-0.9 1,-1.9 1.2,-3.1 l 0,8.7 c -2.9,1.8 -7.7,2.6 -11.3,2.6 -4.9,0 -9,-1.2 -11.3,-2.6 l 0,-8.7 z m -1.5,16.9 c 0,-1.7 0.3,-3.4 1,-4.9 2.6,1.3 6.7,2.5 11.8,2.5 5.1,0 9.2,-1.2 11.8,-2.5 0.7,1.6 1,3.2 1,4.9 0,7 -5.7,12.7 -12.8,12.7 -7.1,0 -12.8,-5.7 -12.8,-12.7 z M 50,85.8 C 39.9,85.8 32.7,82.1 32.4,78.6 L 42.7,46.7 c 2.2,1.1 4.7,1.8 7.3,1.8 2.6,0 5.1,-0.6 7.3,-1.8 l 10.3,31.9 c -0.3,3.5 -7.5,7.2 -17.6,7.2 z"
       display="inline" /></g><g
     transform="translate(-5,-14.8)"
     style="display:none"
     id="g36"
     display="none"><path
       style="display:inline"
       id="path38"
       d="M 70.6,72.1 60,39.1 C 63.6,36.2 65.9,31.8 65.9,26.8 65.9,18.1 58.8,11 50,11 c -8.7,0 -15.9,7.1 -15.9,15.8 0,5 2.3,9.4 5.9,12.3 l -10.6,33 c 0,0.2 -0.1,0.3 -0.1,0.5 0,3 2.3,5.7 6.5,7.7 1.4,0.7 3,1.2 4.7,1.6 l 0,5.5 c 0,0.8 0.7,1.5 1.5,1.5 0.8,0 1.5,-0.7 1.5,-1.5 l 0,-4.8 c 2,0.3 4.2,0.5 6.4,0.5 5.3,0 10.4,-1 14.2,-2.7 4.2,-1.9 6.5,-4.7 6.5,-7.7 0,-0.3 0,-0.4 0,-0.6 z M 37.2,26.9 c 0,-7 5.7,-12.7 12.8,-12.7 7.1,0 12.8,5.7 12.8,12.7 0,7 -5.7,12.7 -12.8,12.7 -7.1,0 -12.8,-5.7 -12.8,-12.7 z M 50,80 c -2.3,0 -4.4,-0.2 -6.4,-0.5 l 0,-17.9 c 0,-2.9 2.4,-5.2 5.2,-5.2 2.9,0 5.2,2.4 5.2,5.2 0,0.8 0.7,1.5 1.5,1.5 0.8,0 1.5,-0.7 1.5,-1.5 0,-4.6 -3.7,-8.3 -8.3,-8.3 -4.6,0 -8.3,3.7 -8.3,8.3 l 0,17.2 C 35.5,77.4 32.5,75.1 32.3,72.9 L 42.6,41 c 2.2,1.1 4.7,1.8 7.3,1.8 2.6,0 5.1,-0.6 7.3,-1.8 L 67.5,72.9 C 67.3,76.2 60.2,80 50,80 Z"
       display="inline" /></g><g
     transform="translate(-5,-14.8)"
     style="display:none"
     id="g40"
     display="none"><path
       style="display:inline"
       id="path42"
       d="m 65.7,54.1 0.8,0 c 0.7,0 1.2,-0.5 1.2,-1.2 l 0,-4.1 c 0,-0.7 -0.5,-1.2 -1.2,-1.2 l -0.8,0 c -0.1,0 -0.3,0 -0.4,0.1 -0.4,-3.1 -3.1,-5.5 -6.4,-5.5 -1.8,0 -3.4,0.7 -4.6,1.9 l -0.8,-2.3 c 2.4,-2 3.9,-5 3.9,-8.3 0,-6.1 -5,-11 -11,-11 -6,0 -11,4.9 -11,11 0,3.3 1.5,6.3 3.9,8.3 l -7,21.6 c 0,0.2 -0.1,0.3 -0.1,0.5 0,4.2 6.1,7.4 14.2,7.4 1.3,0 2.5,-0.1 3.7,-0.2 l 0,-0.1 c 0,0.7 0.5,1.2 1.2,1.2 l 0.8,0 c 0.1,0 0.3,0 0.4,-0.1 0.4,3.1 3.1,5.5 6.4,5.5 3.2,0 5.9,-2.4 6.4,-5.5 0.1,0 0.3,0.1 0.4,0.1 l 0.8,0 c 0.7,0 1.2,-0.5 1.2,-1.2 l 0,-4.1 c 0,-0.7 -0.5,-1.2 -1.2,-1.2 l -0.8,0 c -0.1,0 -0.2,0 -0.3,0.1 l 0,-11.8 c 0.1,0 0.2,0.1 0.3,0.1 z m -10.1,-1.8 6.8,0 0,15.1 -6.8,0 0,-15.1 z M 59,45.2 c 1.9,0 3.4,1.5 3.4,3.4 l 0,0.7 -6.8,0 0,-0.7 c 0,-1.9 1.5,-3.4 3.4,-3.4 z M 38.5,33.4 c 0,-4.4 3.6,-7.9 8,-7.9 4.4,0 8,3.6 8,7.9 0,4.4 -3.6,7.9 -8,7.9 -4.4,0 -8,-3.6 -8,-7.9 z m 12.8,32.3 c -0.7,0 -1.2,0.5 -1.2,1.2 l 0,1 c -0.1,0 -0.1,0 -0.2,0 -1.1,0.2 -2.3,0.2 -3.5,0.2 -6.7,0 -10.9,-2.4 -11.2,-4.2 l 6.6,-20.6 c 1.4,0.6 2.9,1 4.5,1 1.6,0 3.1,-0.3 4.5,-1 l 1.4,4.2 c -0.1,0 -0.1,0 -0.2,0 l -0.8,0 C 50.5,47.5 50,48 50,48.7 l 0,4.1 c 0,0.7 0.5,1.2 1.2,1.2 l 0.8,0 c 0.1,0 0.2,0 0.3,-0.1 l 0,11.7 c -0.1,0 -0.2,-0.1 -0.3,-0.1 l -0.7,0 z m 7.7,8.9 c -1.9,0 -3.4,-1.5 -3.4,-3.4 l 0,-0.7 6.8,0 0,0.7 c -0.1,1.9 -1.6,3.4 -3.4,3.4 z"
       display="inline" /></g><g
     transform="translate(-5,-14.8)"
     id="g44"><path
       id="path46"
       d="M 94.9,71.3 85.1,40.8 c 3.3,-2.7 5.5,-6.8 5.5,-11.4 0,-1.1 -0.1,-2.1 -0.3,-3.1 l 0.3,0 c 0.8,0 1.4,-0.6 1.4,-1.4 0,-0.8 -0.6,-1.4 -1.4,-1.4 l -1.3,0 C 87,18.4 81.9,14.8 75.9,14.8 c -8.1,0 -14.7,6.6 -14.7,14.6 0,4.6 2.1,8.7 5.5,11.4 l -7.7,24 0.3,0.9 -2.5,-7.8 C 59,56 60.4,53.3 60.4,50.2 60.4,44.6 55.8,40 50.1,40 c -5.7,0 -10.3,4.6 -10.3,10.2 0,3.1 1.4,5.9 3.6,7.7 L 37.8,75.4 C 35,77.2 30.2,78.6 24.3,78.6 14.9,78.6 8.3,75.1 8,72 l 9.5,-29.6 c 2,1 4.3,1.6 6.8,1.6 2.4,0 4.7,-0.6 6.7,-1.6 l 8.7,27.1 1.5,-4.6 -7.7,-24 C 36.8,38.2 39,34.1 39,29.5 39,21.4 32.4,14.9 24.3,14.9 c -8.1,0 -14.7,6.6 -14.7,14.6 0,0.4 0,0.8 0.1,1.3 -0.4,0.1 -0.8,0.3 -1.2,0.4 -0.8,0.2 -1.2,1 -1,1.8 0.2,0.6 0.7,1 1.4,1 0.1,0 0.3,0 0.4,-0.1 0.3,-0.1 0.6,-0.2 0.9,-0.3 0.8,2.9 2.6,5.5 4.9,7.3 L 5.1,71.3 C 5,71.4 5,71.6 5,71.7 c 0,2.8 2.1,5.3 6,7.1 3.5,1.6 8.2,2.5 13.1,2.5 4.7,0 9.2,-0.8 12.7,-2.4 0,0 0,0 0,0 0.6,3.6 6.1,6.3 13.2,6.3 7.1,0 12.6,-2.6 13.2,-6.3 0,0 0,0 0,0 3.5,1.5 8,2.4 12.7,2.4 4.9,0 9.6,-0.9 13.1,-2.5 3.9,-1.8 6,-4.3 6,-7.1 0,-0.1 0,-0.3 -0.1,-0.4 z m -64.5,-52 c 2.8,1.7 4.8,4.6 5.4,7.9 -2.6,-1.9 -4.8,-4.1 -6.6,-6.4 0.4,-0.5 0.8,-1 1.2,-1.5 z m -18.1,10 c 0,-6.5 5.3,-11.8 11.9,-11.8 1.3,0 2.5,0.2 3.6,0.6 -2.5,3.4 -6.2,6.4 -10.8,9.1 -1.5,0.9 -3.1,1.7 -4.7,2.3 0,0 0,-0.1 0,-0.2 z m 0.4,3.1 c 1.9,-0.8 3.8,-1.7 5.7,-2.8 3.5,-2 6.5,-4.3 8.9,-6.7 2.2,2.9 5.2,5.6 8.6,7.8 -0.7,5.8 -5.7,10.4 -11.8,10.4 -5.4,0 -10,-3.7 -11.4,-8.7 z m 24.1,46 c 0,0.1 0,0.2 0,0.3 0,-0.1 0,-0.2 0,-0.3 z M 64,29.3 c 0,-6.5 5.3,-11.8 11.9,-11.8 4.4,0 8.2,2.3 10.2,5.8 l -4.4,0 -2.3,0 -8.2,0 -0.3,0 -1.9,0 c -2,0 -3.5,1.6 -3.5,3.5 l 0,1.2 c 0,2 1.6,3.5 3.5,3.5 l 2.3,0 c 2,0 3.5,-1.6 3.5,-3.5 l 0,-1.2 c 0,-0.2 0,-0.5 -0.1,-0.7 l 1.3,0 c 0,0.2 -0.1,0.5 -0.1,0.7 l 0,1.2 c 0,2 1.6,3.5 3.5,3.5 l 2.3,0 c 2,0 3.5,-1.6 3.5,-3.5 l 0,-1.2 c 0,-0.2 0,-0.5 -0.1,-0.7 l 2.1,0 c 0.3,1 0.4,2 0.4,3.1 C 87.6,35.7 82.3,41 75.7,41 69.3,41.1 64,35.8 64,29.3 Z m 18.4,-2.4 0,1.2 c 0,0.4 -0.3,0.7 -0.7,0.7 l -2.3,0 c -0.4,0 -0.7,-0.3 -0.7,-0.7 l 0,-1.2 c 0,-0.4 0.3,-0.7 0.7,-0.7 l 2.3,0 c 0.4,0 0.7,0.4 0.7,0.7 z m -10.4,0 0,1.2 c 0,0.4 -0.3,0.7 -0.7,0.7 l -2.3,0 c -0.4,0 -0.7,-0.3 -0.7,-0.7 l 0,-1.2 c 0,-0.4 0.3,-0.7 0.7,-0.7 l 1.9,0 0.3,0 c 0.4,0 0.8,0.4 0.8,0.7 z M 42.6,50.1 c 0,-4.1 3.3,-7.4 7.4,-7.4 4.1,0 7.4,3.3 7.4,7.4 0,4.1 -3.3,7.4 -7.4,7.4 -4.1,0 -7.4,-3.3 -7.4,-7.4 z M 50,82.4 c -6.2,0 -10.1,-2.2 -10.4,-3.9 l 6.2,-19.1 c 1.3,0.6 2.7,0.9 4.2,0.9 1.5,0 2.9,-0.3 4.2,-0.9 l 6.2,19.1 c -0.3,1.7 -4.2,3.9 -10.4,3.9 z m 13.2,-3.7 c 0,-0.1 0,-0.2 0,-0.3 0,0.1 0,0.2 0,0.3 z M 75.9,78.5 C 70,78.5 65.2,77.1 62.4,75.3 l 0.8,2.6 -2.8,-8.5 8.7,-27.1 c 2,1 4.3,1.6 6.8,1.6 2.4,0 4.7,-0.6 6.7,-1.6 l 9.5,29.6 c -0.2,3.2 -6.8,6.6 -16.2,6.6 z" /></g><g
     transform="translate(-5,-14.8)"
     style="display:none"
     id="g48"
     display="none"><path
       style="display:inline"
       id="path50"
       d="M 87.2,73.3 77.3,42.6 c 3.4,-2.7 5.5,-6.8 5.5,-11.4 0,-1.1 -0.1,-2.1 -0.3,-3.1 l 0.3,0 c 0.8,0 1.4,-0.6 1.4,-1.4 0,-0.8 -0.6,-1.4 -1.4,-1.4 l -1.3,0 C 79.2,20.2 74,16.6 68,16.6 c -8.1,0 -14.8,6.6 -14.8,14.7 0,4.6 2.2,8.7 5.5,11.4 L 50,69.7 41.3,42.6 c 3.4,-2.7 5.5,-6.8 5.5,-11.4 0,-8.1 -6.6,-14.7 -14.8,-14.7 -8.1,0 -14.8,6.6 -14.8,14.7 0,0.4 0,0.8 0.1,1.3 -0.4,0.1 -0.8,0.3 -1.2,0.4 -0.8,0.2 -1.2,1 -1,1.8 0.2,0.6 0.8,1 1.4,1 0.1,0 0.3,0 0.4,-0.1 0.3,-0.1 0.6,-0.2 0.9,-0.3 0.9,2.9 2.6,5.5 4.9,7.4 l -9.9,30.7 c 0,0.1 -0.1,0.3 -0.1,0.4 0,2.8 2.1,5.3 6,7.2 3.5,1.7 8.2,2.6 13.2,2.6 5,0 9.6,-0.9 13.2,-2.6 2.2,-1 3.8,-2.2 4.8,-3.6 1,1.4 2.6,2.6 4.8,3.6 3.5,1.7 8.2,2.6 13.2,2.6 5,0 9.6,-0.9 13.2,-2.6 3.9,-1.8 6,-4.4 6,-7.2 0.1,-0.2 0.1,-0.3 0.1,-0.5 z M 56.1,31.2 c 0,-6.5 5.4,-11.8 11.9,-11.8 4.4,0 8.2,2.4 10.3,5.9 l -4.4,0 -2.3,0 -8.2,0 -0.4,0 -2,0 c -2,0 -3.6,1.6 -3.6,3.6 l 0,1.2 c 0,2 1.6,3.6 3.6,3.6 l 2.3,0 c 2,0 3.6,-1.6 3.6,-3.6 l 0,-1.2 c 0,-0.2 0,-0.5 -0.1,-0.7 l 1.3,0 c 0,0.2 -0.1,0.5 -0.1,0.7 l 0,1.2 c 0,2 1.6,3.6 3.6,3.6 l 2.3,0 c 2,0 3.6,-1.6 3.6,-3.6 l 0,-1.2 c 0,-0.2 0,-0.5 -0.1,-0.7 l 2.2,0 c 0.3,1 0.4,2 0.4,3.1 C 79.9,37.7 74.6,43 68,43 61.4,43 56.1,37.7 56.1,31.2 Z m 18.5,-2.4 0,1.2 c 0,0.4 -0.3,0.7 -0.7,0.7 l -2.3,0 c -0.4,0 -0.7,-0.3 -0.7,-0.7 l 0,-1.2 c 0,-0.4 0.3,-0.7 0.7,-0.7 l 2.3,0 c 0.3,0 0.7,0.3 0.7,0.7 z m -10.5,0 0,1.2 c 0,0.4 -0.3,0.7 -0.7,0.7 l -2.3,0 c -0.4,0 -0.7,-0.3 -0.7,-0.7 l 0,-1.2 c 0,-0.4 0.3,-0.7 0.7,-0.7 l 2,0 0.3,0 c 0.3,0 0.7,0.3 0.7,0.7 z M 38.3,21.1 c 2.8,1.7 4.8,4.6 5.5,7.9 -2.6,-1.9 -4.9,-4.1 -6.6,-6.5 0.3,-0.4 0.7,-0.9 1.1,-1.4 z M 20.1,31.2 c 0,-6.5 5.4,-11.8 11.9,-11.8 1.3,0 2.5,0.2 3.6,0.6 -2.6,3.4 -6.2,6.5 -10.9,9.1 -1.5,0.9 -3.1,1.7 -4.7,2.3 0.1,-0.1 0.1,-0.1 0.1,-0.2 z m 0.4,3.1 c 1.9,-0.8 3.8,-1.7 5.7,-2.8 3.5,-2 6.6,-4.3 9,-6.8 2.2,2.9 5.2,5.6 8.7,7.9 C 43.1,38.5 38.1,43 32,43 26.5,43 21.9,39.3 20.5,34.3 Z M 32,80.6 c -9.5,0 -16.1,-3.5 -16.4,-6.7 l 9.6,-29.7 c 2,1.1 4.3,1.6 6.8,1.6 2.4,0 4.7,-0.6 6.8,-1.6 L 48.4,74 c -0.3,3.2 -6.9,6.6 -16.4,6.6 z m 36,0 c -9.5,0 -16.1,-3.5 -16.4,-6.7 l 9.6,-29.7 c 2,1.1 4.3,1.6 6.8,1.6 2.4,0 4.7,-0.6 6.8,-1.6 L 84.4,74 c -0.3,3.2 -6.9,6.6 -16.4,6.6 z"
       display="inline" /></g><path
     style="opacity:1;fill:#002a32;fill-opacity:1;stroke:none;stroke-width:4;stroke-linecap:round;stroke-linejoin:round;stroke-miterlimit:4;stroke-dasharray:none;stroke-opacity:0.45991564"
     d="m 39.690169,69.921192 c -2.718815,-0.587381 -5.441308,-1.995646 -6.699344,-3.46538 -0.581122,-0.678913 -1.056588,-1.427229 -1.056588,-1.662926 0,-0.476897 0.147533,-0.50262 -4.176271,0.728157 -2.642026,0.752057 -3.227742,0.806724 -8.650848,0.807431 -5.328958,5.97e-4 -6.059405,-0.0644 -8.707069,-0.775918 -6.3627839,-1.709897 -10.38445675,-4.879054 -10.38445675,-8.18315 0,-0.450584 2.23668945,-7.626209 4.97042085,-15.94583 L 9.9564343,26.296991 8.5927815,24.780281 C 7.0609306,23.076494 5.8251597,21.102622 5.513892,19.862434 5.3350468,19.149858 5.1911516,19.055736 4.4938136,19.195204 2.4528012,19.603406 1.6363297,17.279309 3.5142211,16.40678 4.3735107,16.007526 4.4779521,15.824327 4.4837127,14.706209 4.5028341,10.994775 6.1233159,7.2631019 8.9382931,4.4481245 18.253736,-4.867318 34.022373,1.6824789 34.022373,14.867264 c 0,3.523657 -1.395591,6.962859 -3.970614,9.784932 l -1.435023,1.572698 3.645016,11.423147 c 2.004757,6.282729 3.735371,11.528069 3.845806,11.656305 0.110439,0.128238 0.633299,-1.17543 1.161913,-2.897041 l 0.961121,-3.130202 -1.183191,-1.496847 c -2.879628,-3.643006 -2.996525,-8.851237 -0.27814,-12.392291 2.15776,-2.810766 4.781858,-4.116201 8.2904,-4.124303 4.216402,-0.0097 7.730645,2.207541 9.47451,5.977854 1.61449,3.490593 0.926336,7.91069 -1.696709,10.898171 l -0.961876,1.095516 0.980896,2.992567 c 0.539494,1.645913 1.059022,2.99257 1.154506,2.99257 0.161759,0 7.471218,-22.566654 7.460387,-23.032618 -0.0027,-0.116754 -0.606469,-0.831215 -1.341681,-1.587692 -1.838866,-1.892053 -3.418248,-5.191271 -3.819949,-7.979596 -1.436392,-9.9704857 8.065508,-18.5809783 17.983815,-16.2966865 3.549663,0.8175252 7.649485,3.8826595 9.246945,6.9132593 0.650272,1.2336523 0.866158,1.4138408 1.693946,1.4138408 1.048614,0 1.886228,0.6512708 1.886228,1.4665994 0,0.543665 -0.876185,1.516452 -1.365862,1.516452 -0.151148,0 -0.274816,1.308813 -0.274816,2.908474 0,2.036723 -0.165103,3.400232 -0.550844,4.549153 -0.633699,1.887462 -2.850144,5.366628 -3.99015,6.263356 l -0.776485,0.610782 4.983079,15.510855 c 5.502121,17.126483 5.395933,16.576402 3.643465,18.874046 C 86.879642,62.853983 83.343,64.766107 78.768136,65.768484 73.293969,66.9679 65.059666,66.586123 60.23811,64.90935 l -2.00734,-0.698081 -0.179582,0.715511 c -0.267977,1.067706 -2.256487,2.904266 -4.075838,3.764387 -3.430518,1.621819 -9.895159,2.178459 -14.285181,1.230025 z m 11.754665,-3.364643 c 2.091987,-0.749139 3.7572,-1.942363 3.7572,-2.692254 0,-0.463852 -5.822739,-18.778729 -6.037164,-18.989329 -0.04295,-0.04219 -0.883514,0.131612 -1.867921,0.386212 -1.496635,0.387084 -2.107457,0.404627 -3.728813,0.107086 -1.066441,-0.195706 -2.127241,-0.382269 -2.357336,-0.414588 -0.298475,-0.04192 -1.306594,2.666964 -3.51824,9.453772 l -3.099891,9.512532 0.684342,0.733448 c 0.904366,0.969253 2.538371,1.785279 4.6399,2.317169 2.588199,0.655066 9.206178,0.417367 11.527923,-0.414048 z m -29.205512,-3.01661 c 3.608837,-0.321415 6.908648,-1.128661 9.050651,-2.214095 1.369247,-0.693849 1.406165,-0.751165 2.361803,-3.666674 l 0.970813,-2.961808 -1.665353,-5.199527 c -0.915946,-2.85974 -2.866232,-8.916339 -4.33397,-13.459108 l -2.668615,-8.25958 -1.708512,0.631208 c -2.463534,0.910151 -7.557501,0.914104 -10.002363,0.0078 -1.247391,-0.462424 -1.765065,-0.542306 -1.852552,-0.285868 -0.06678,0.195737 -2.20174,6.850501 -4.7443587,14.788361 -4.3598008,13.610966 -4.5988034,14.479159 -4.1988395,15.252605 1.5628072,3.022134 6.5948302,4.899938 15.0624822,5.620873 0.246102,0.02094 1.924068,-0.09341 3.728814,-0.25415 z M 78.89054,62.675854 c 4.286877,-1.141712 7.23428,-2.918301 7.859966,-4.7377 0.23295,-0.677388 -0.495347,-3.230307 -4.373472,-15.330394 -2.559132,-7.984714 -4.73162,-14.596249 -4.827748,-14.692297 -0.09613,-0.09605 -0.968675,0.113942 -1.938984,0.466648 -2.511197,0.912813 -7.0222,0.918079 -9.506407,0.0111 -0.976857,-0.356649 -1.867136,-0.548311 -1.978398,-0.425915 -0.111262,0.122396 -2.103797,6.169812 -4.427856,13.438702 l -4.22556,13.216159 0.968036,2.953328 0.968032,2.953328 1.95457,0.86552 c 1.695742,0.750908 4.304447,1.496188 6.876603,1.964575 0.41017,0.07469 2.89356,0.09296 5.518645,0.0406 3.676511,-0.07333 5.314919,-0.23956 7.132573,-0.723649 z M 48.248724,41.809797 c 1.509654,-0.770167 3.199349,-2.642195 3.668825,-4.06472 1.025934,-3.10861 -0.338547,-6.93678 -3.075651,-8.629003 -3.990636,-2.46722 -9.46261,-0.446171 -10.76325,3.975357 -0.592243,2.013321 -0.593272,2.502374 -0.0094,4.468473 1.224522,4.123412 6.285611,6.236396 10.179479,4.249893 l -6e-6,0 z M 21.553452,25.91544 c 4.405308,-0.934709 8.42232,-4.890581 9.075047,-8.936923 0.156485,-0.97008 0.07331,-1.086139 -1.725943,-2.408386 -1.039694,-0.764055 -2.947793,-2.477738 -4.24022,-3.808184 L 22.31247,8.3429535 20.973209,9.4663923 c -3.735944,3.1338967 -6.965211,5.2381587 -10.923205,7.1178017 -1.2531636,0.595124 -2.2784794,1.14271 -2.2784794,1.216856 0,0.07415 0.3673341,0.885006 0.8162982,1.80191 2.3680012,4.836089 7.6966972,7.430432 12.9656292,6.31248 z m 52.846907,-0.448625 c 2.863234,-0.874051 5.599061,-3.221917 6.90735,-5.927832 0.89294,-1.846858 1.403072,-4.954363 1.103499,-6.722046 -0.207987,-1.227274 -0.301601,-1.339553 -1.188656,-1.425667 -0.959337,-0.09313 -0.96289,-0.0884 -0.96289,1.28261 0,2.918429 -1.348274,4.031205 -4.884331,4.031205 -1.950298,0 -2.341561,-0.09453 -3.127106,-0.755525 -1.026062,-0.863374 -1.654603,-2.466016 -1.467395,-3.741541 0.101668,-0.692713 0.01579,-0.872426 -0.4169,-0.872426 -0.447872,0 -0.544946,0.24176 -0.544946,1.357187 0,2.913899 -1.351564,4.012305 -4.937051,4.012305 -2.197399,0 -2.319504,-0.03757 -3.29617,-1.014237 -0.930032,-0.930032 -1.014237,-1.164147 -1.014237,-2.819862 0,-2.100371 0.38439,-3.1101567 1.462927,-3.8430739 0.684813,-0.4653649 1.826495,-0.543465 9.872666,-0.6753695 L 81.005425,8.20339 79.398094,6.490294 C 75.86819,2.7281188 70.648979,1.7650868 65.805927,3.98231 58.69686,7.2369474 56.895199,16.578174 62.2591,22.371828 c 3.171607,3.425713 7.469163,4.521224 12.141259,3.094987 z M 11.052881,12.85046 C 13.832353,11.402157 17.850714,8.4238765 20.279638,6.011886 23.050582,3.2602584 23.052806,3.1989916 20.394742,2.841929 14.435975,2.041477 8.1767581,6.991596 7.5572002,12.994534 L 7.3888648,14.625547 8.5496863,14.08774 c 0.6384516,-0.295794 1.7648897,-0.85257 2.5031947,-1.23728 z m 55.730604,0.0079 c 0.113296,-1.186546 -0.262112,-1.511812 -1.752298,-1.51824 -1.20256,-0.0052 -1.774915,0.426215 -1.774915,1.337805 0,0.997084 0.619057,1.377185 2.086581,1.281159 1.289746,-0.08439 1.347826,-0.128769 1.440632,-1.100724 z m 10.440678,0 c 0.113296,-1.186545 -0.262112,-1.511811 -1.752298,-1.518239 -1.267436,-0.0055 -1.774915,0.429631 -1.774915,1.52176 0,0.974306 0.330459,1.143207 2.088135,1.067264 1.294955,-0.05595 1.345789,-0.09377 1.439078,-1.070785 z M 30.292661,10.835556 C 29.575446,8.4524303 26.607167,4.7728815 25.401924,4.7728815 c -0.544635,0 -0.973298,1.1427835 -0.653092,1.7410943 0.277924,0.5193053 5.591146,5.7165332 5.844118,5.7165332 0.06574,0 -0.06939,-0.627729 -0.300289,-1.394953 z"
     id="path4212"
     inkscape:connector-curvature="0" /><path
     style="opacity:1;fill:#75b1a9;fill-opacity:1;stroke:none;stroke-width:4;stroke-linecap:round;stroke-linejoin:round;stroke-miterlimit:4;stroke-dasharray:none;stroke-opacity:0.45991564"
     d="M 15.079999,63.49658 C 12.390564,63.154961 9.0087095,62.226857 7.0128232,61.282652 5.0913046,60.373627 3.2969482,58.484139 3.2969482,57.36977 c 0,-0.438904 0.4810057,-2.351399 1.0689014,-4.249989 1.9824122,-6.402138 7.9486214,-24.928852 8.0702784,-25.060426 0.06635,-0.07176 1.091081,0.127968 2.277172,0.443843 2.916604,0.776738 6.890669,0.731844 9.315852,-0.105239 0.984407,-0.33978 1.872824,-0.52561 1.974262,-0.412955 0.101437,0.112655 2.100835,6.178387 4.443106,13.479404 l 4.258676,13.274576 -0.995003,2.95081 -0.994999,2.950813 -1.807428,0.842515 c -4.197285,1.956524 -10.232169,2.724224 -15.827767,2.013458 z"
     id="path4214"
     inkscape:connector-curvature="0" /><path
     style="opacity:1;fill:#4f6457;fill-opacity:1;stroke:none;stroke-width:4;stroke-linecap:round;stroke-linejoin:round;stroke-miterlimit:4;stroke-dasharray:none;stroke-opacity:0.45991564"
     d="m 42.400428,42.145407 c -1.832045,-0.647086 -3.701402,-2.6034 -4.348067,-4.550325 -1.657179,-4.989298 2.244054,-9.884343 7.570524,-9.499061 3.652798,0.26422 6.308221,2.982969 6.544971,6.701052 0.165198,2.594388 -0.472042,4.18968 -2.346912,5.875349 -2.155578,1.93805 -4.683252,2.439798 -7.420516,1.472985 z"
     id="path4216"
     inkscape:connector-curvature="0" /><path
     style="opacity:1;fill:#75b1a9;fill-opacity:1;stroke:none;stroke-width:4;stroke-linecap:round;stroke-linejoin:round;stroke-miterlimit:4;stroke-dasharray:none;stroke-opacity:0.45991564"
     d="m 68.340972,25.939946 c -2.252579,-0.466915 -4.34988,-1.697361 -6.081871,-3.568118 -2.25556,-2.436274 -3.004084,-4.405713 -3.004084,-7.904031 0,-3.386524 0.754125,-5.4518382 2.813394,-7.7050064 3.593971,-3.9323763 9.286699,-5.0897123 13.968938,-2.8398955 1.339542,0.6436501 4.818923,3.6593667 4.818923,4.1767504 0,0.1390934 -2.98678,0.2645858 -6.637288,0.278872 -3.650509,0.014286 -7.809395,0.1155446 -9.241968,0.2250187 -2.293086,0.1752324 -2.701081,0.2954449 -3.410519,1.0048821 -0.647722,0.6477227 -0.830749,1.1502347 -0.932798,2.5610507 -0.229932,3.178766 1.09445,4.535616 4.427083,4.535616 3.228544,0 4.758202,-1.34013 4.758202,-4.16865 0,-1.006987 0.09606,-1.226088 0.503182,-1.147683 0.361178,0.06956 0.520924,0.442066 0.566047,1.319955 0.14272,2.776723 1.573693,3.996378 4.688792,3.996378 3.056976,0 4.669029,-1.419891 4.678259,-4.120595 0.0043,-1.266126 0.01958,-1.285202 0.954226,-1.19322 1.185896,0.116708 1.541223,1.112624 1.284946,3.60146 -0.388703,3.774881 -1.888551,6.609357 -4.58568,8.666214 -2.55857,1.951191 -6.558445,2.904779 -9.567784,2.281002 z"
     id="path4218"
     inkscape:connector-curvature="0" /><path
     style="opacity:1;fill:#d9b44a;fill-opacity:1;stroke:none;stroke-width:4;stroke-linecap:round;stroke-linejoin:round;stroke-miterlimit:4;stroke-dasharray:none;stroke-opacity:0.45991564"
     d="M 64.598644,63.105243 C 62.56422,62.63325 60.546304,61.972877 58.635167,61.153668 57.331737,60.594952 57.316591,60.571061 56.36695,57.575397 l -0.956025,-3.015801 4.243299,-13.184882 c 2.333815,-7.251686 4.343245,-13.288161 4.465401,-13.41439 0.122156,-0.126229 0.816857,-0.01034 1.543781,0.257531 2.04577,0.753866 6.87894,0.898726 9.228654,0.276602 1.065401,-0.282082 2.129131,-0.533139 2.363843,-0.557904 0.306796,-0.03237 1.294739,2.638189 3.514692,9.500736 4.125351,12.75272 6.051779,19.115918 6.051779,19.989696 0,1.772898 -3.703072,4.234909 -8.054238,5.35491 -2.691955,0.692918 -11.691354,0.898283 -14.169492,0.323348 z"
     id="path4220"
     inkscape:connector-curvature="0" /><path
     style="opacity:1;fill:#d9b44a;fill-opacity:1;stroke:none;stroke-width:4;stroke-linecap:round;stroke-linejoin:round;stroke-miterlimit:4;stroke-dasharray:none;stroke-opacity:0.45991564"
     d="M 16.34658,25.946024 C 13.424109,25.207568 10.56258,23.083246 9.0674897,20.542225 7.4561116,17.803563 7.4669819,17.70166 9.4645823,16.819703 12.273814,15.579404 16.571286,12.934368 19.198178,10.828805 20.542672,9.7511384 21.794703,8.7497962 21.98047,8.6036003 c 0.224396,-0.176596 1.024083,0.4450985 2.382629,1.8523067 1.124678,1.164965 3.032439,2.874535 4.239469,3.799045 2.182818,1.671903 2.193607,1.687127 2.009904,2.835946 -0.483247,3.022058 -3.166992,6.307135 -6.488453,7.942285 -1.599983,0.787669 -2.41716,0.992876 -4.315644,1.083732 -1.288064,0.06164 -2.845872,-0.01526 -3.461795,-0.170891 z"
     id="path4222"
     inkscape:connector-curvature="0" /><path
     style="opacity:1;fill:#acd0c0;fill-opacity:1;stroke:none;stroke-width:4;stroke-linecap:round;stroke-linejoin:round;stroke-miterlimit:4;stroke-dasharray:none;stroke-opacity:0.45991564"
     d="M 39.764947,66.975915 C 37.727155,66.401303 36.134696,65.572612 35.25318,64.62806 l -0.708175,-0.758816 3.027535,-9.23313 c 2.695658,-8.220997 3.496251,-10.202125 3.942457,-9.755918 0.07109,0.07109 0.936463,0.259253 1.92305,0.418138 1.622669,0.261323 3.592588,0.10412 5.247387,-0.418752 0.406437,-0.128423 0.785237,0.72808 2.145743,4.851724 2.679194,8.120544 4.370857,13.604929 4.370857,14.170356 0,0.719504 -2.151383,2.224594 -4.001359,2.799317 -2.197791,0.682778 -9.377237,0.855385 -11.435728,0.274936 z"
     id="path4224"
     inkscape:connector-curvature="0" /><path
     style="opacity:1;fill:#acd0c0;fill-opacity:1;stroke:none;stroke-width:4;stroke-linecap:round;stroke-linejoin:round;stroke-miterlimit:4;stroke-dasharray:none;stroke-opacity:0.45991564"
     d="M 7.5318892,13.018595 C 8.0281043,7.0348935 14.958277,1.7133918 20.770571,2.8529522 21.553943,3.0065404 22.247391,3.29329 22.311567,3.4901736 22.745342,4.8209386 13.157066,12.269013 8.5532547,14.177489 l -1.157253,0.479731 0.1358875,-1.638625 z"
     id="path4226"
     inkscape:connector-curvature="0" /><path
     style="opacity:1;fill:#acd0c0;fill-opacity:1;stroke:none;stroke-width:4;stroke-linecap:round;stroke-linejoin:round;stroke-miterlimit:4;stroke-dasharray:none;stroke-opacity:0.45991564"
     d="M 27.46806,9.3570169 C 25.822762,7.7311462 24.47661,6.2615997 24.47661,6.0913576 c 0,-0.170242 0.18665,-0.5647909 0.414779,-0.8767753 0.609262,-0.8332161 1.642406,-0.2523338 3.303021,1.8571143 1.269067,1.6120726 2.757977,4.7485714 2.416343,5.0902054 -0.08318,0.08318 -1.497395,-1.179015 -3.142693,-2.8048851 z"
     id="path4228"
     inkscape:connector-curvature="0" /><path
     style="opacity:1;fill:#acd0c0;fill-opacity:1;stroke:none;stroke-width:4;stroke-linecap:round;stroke-linejoin:round;stroke-miterlimit:4;stroke-dasharray:none;stroke-opacity:0.45991564"
     d="m 63.6276,13.675735 c -0.471732,-0.471732 -0.478777,-1.516761 -0.01336,-1.982175 0.408845,-0.408845 2.280126,-0.472974 2.870942,-0.09839 0.237562,0.150618 0.356465,0.654133 0.298306,1.263229 -0.09281,0.971955 -0.150887,1.016331 -1.440632,1.100724 -0.787238,0.05151 -1.497739,-0.06588 -1.715254,-0.28339 z"
     id="path4230"
     inkscape:connector-curvature="0" /><path
     style="opacity:1;fill:#400000;fill-opacity:0;stroke:none;stroke-width:4;stroke-linecap:round;stroke-linejoin:round;stroke-miterlimit:4;stroke-dasharray:none;stroke-opacity:0.45991564"
     d="m 73.90922,13.83487 c -0.340568,-0.340568 -0.244601,-1.751014 0.145696,-2.14131 0.408845,-0.408845 2.280126,-0.472974 2.870943,-0.09839 0.237561,0.150618 0.356464,0.654133 0.298305,1.263229 -0.09463,0.991058 -0.12895,1.014673 -1.59969,1.100762 -0.826641,0.04839 -1.598505,-0.0075 -1.715254,-0.124293 z"
     id="path4232"
     inkscape:connector-curvature="0" /><path
     style="opacity:1;fill:#acd0c0;fill-opacity:1;stroke:none;stroke-width:4;stroke-linecap:round;stroke-linejoin:round;stroke-miterlimit:4;stroke-dasharray:none;stroke-opacity:0.45991564"
     d="m 73.90922,13.83487 c -0.340568,-0.340568 -0.244601,-1.751014 0.145696,-2.14131 0.408845,-0.408845 2.280126,-0.472974 2.870943,-0.09839 0.237561,0.150618 0.356464,0.654133 0.298305,1.263229 -0.09463,0.991058 -0.12895,1.014673 -1.59969,1.100762 -0.826641,0.04839 -1.598505,-0.0075 -1.715254,-0.124293 z"
     id="path4234"
     inkscape:connector-curvature="0" /></svg>