<?xml version="1.0" encoding="UTF-8" standalone="no"?>
<svg
   xmlns:dc="http://purl.org/dc/elements/1.1/"
   xmlns:cc="http://creativecommons.org/ns#"
   xmlns:rdf="http://www.w3.org/1999/02/22-rdf-syntax-ns#"
   xmlns:svg="http://www.w3.org/2000/svg"
   xmlns="http://www.w3.org/2000/svg"
   xmlns:sodipodi="http://sodipodi.sourceforge.net/DTD/sodipodi-0.dtd"
   xmlns:inkscape="http://www.inkscape.org/namespaces/inkscape"
   version="1.1"
   x="0px"
   y="0px"
   viewBox="0 0 0 82.114115"
   xml:space="preserve"
   id="svg16"
   inkscape:version="0.91 r13725"
   sodipodi:docname="thumbs-down.svg"
   width="91.400002"
   height="112.14148"><metadata
     id="metadata28"><rdf:RDF><cc:Work
         rdf:about=""><dc:format>image/svg+xml</dc:format><dc:type
           rdf:resource="http://purl.org/dc/dcmitype/StillImage" /><dc:title></dc:title></cc:Work></rdf:RDF></metadata><defs
     id="defs26" /><sodipodi:namedview
     pagecolor="#ffffff"
     bordercolor="#666666"
     borderopacity="1"
     objecttolerance="10"
     gridtolerance="10"
     guidetolerance="10"
     inkscape:pageopacity="0"
     inkscape:pageshadow="2"
     inkscape:window-width="1211"
     inkscape:window-height="675"
     id="namedview24"
     showgrid="false"
     fit-margin-top="0"
     fit-margin-left="0"
     fit-margin-right="0"
     fit-margin-bottom="0"
     inkscape:zoom="2.0148284"
     inkscape:cx="-66.176283"
     inkscape:cy="8.4643376"
     inkscape:window-x="204"
     inkscape:window-y="0"
     inkscape:window-maximized="0"
     inkscape:current-layer="svg16" /><path
     d="m -100.29735,78.414122 0,-44.5 c 0,-2 -1.7,-3.7 -3.7,-3.7 l -13.40001,0 c -2,0 -3.7,1.7 -3.7,3.7 l 0,44.5 c 0,2 1.7,3.7 3.7,3.7 l 13.40001,0 c 2.1,0 3.7,-1.7 3.7,-3.7 z m -91.4,-41.7 0,0 0,20.4 c 0,1.7 0.9,3.8 1.6,4.7 l 11.5,15.2 c 1.8,2.7 4.2,5.1 7.6,5.1 l 42.49999,0 c 1.8,0 3.2,-1.5 3.2,-3.2 l 0,-46.7 c 0,-2.3 -0.9,-4.4 -2.5,-5.9 L -152.99735,0.9141194 c -0.8,-0.8 -2,-1.1 -3.7,-0.8 0,0 -3.8,0.8 -5.5,1.2 -1.8,0.4 -2.6,1.9 -2.6,4.1 0,2.2 6.9,19.3000026 6.9,19.3000026 0.4,1.8 -1,3.4 -2.8,3.4 l -22.7,0 c -4.6,0 -8.3,3.7 -8.3,8.3 l 0,0.3 z"
     id="path18"
     inkscape:connector-curvature="0" /><path
     inkscape:connector-curvature="0"
     id="path3396"
     d="m -95.93079,33.727381 0,44.5 c 0,2 1.7,3.7 3.7,3.7 l 83.87748,0 c 2,0 3.7,-1.7 3.7,-3.7 l 0,-44.5 c 0,-2 -1.7,-3.7 -3.7,-3.7 l -83.87748,0 c -2.1,0 -3.7,1.7 -3.7,3.7 z"
     sodipodi:nodetypes="sssssssss" /><path
     inkscape:connector-curvature="0"
     id="path3407"
     d="m 0,33.727382 0,44.5 c 0,2 1.7,3.7 3.7,3.7 l 13.40001,0 c 2,0 3.7,-1.7 3.7,-3.7 l 0,-44.5 c 0,-2 -1.7,-3.7 -3.7,-3.7 l -13.40001,0 c -2.1,0 -3.7,1.7 -3.7,3.7 z m 91.4,41.7 0,0 0,-20.4 c 0,-1.7 -0.9,-3.8 -1.6,-4.7 l -11.5,-15.2 c -1.8,-2.7 -4.2,-5.1 -7.6,-5.1 l -42.49999,0 c -1.8,0 -3.2,1.5 -3.2,3.2 l 0,46.7 c 0,2.3 0.9,4.4 2.5,5.9 L 52.7,111.22737 c 0.8,0.8 2,1.1 3.7,0.8 0,0 3.8,-0.8 5.5,-1.2 1.8,-0.4 2.6,-1.9 2.6,-4.1 0,-2.2 -6.9,-19.299988 -6.9,-19.299988 -0.4,-1.8 1,-3.4 2.8,-3.4 l 22.7,0 c 4.6,0 8.3,-3.7 8.3,-8.3 l 0,-0.3 z" /></svg>