<?xml version="1.0" encoding="UTF-8" standalone="no"?>
<svg
   xmlns:dc="http://purl.org/dc/elements/1.1/"
   xmlns:cc="http://creativecommons.org/ns#"
   xmlns:rdf="http://www.w3.org/1999/02/22-rdf-syntax-ns#"
   xmlns:svg="http://www.w3.org/2000/svg"
   xmlns="http://www.w3.org/2000/svg"
   xmlns:sodipodi="http://sodipodi.sourceforge.net/DTD/sodipodi-0.dtd"
   xmlns:inkscape="http://www.inkscape.org/namespaces/inkscape"
   version="1.1"
   x="0px"
   y="0px"
   viewBox="0 0 88 88"
   xml:space="preserve"
   id="svg2"
   inkscape:version="0.91 r13725"
   sodipodi:docname="voting.svg"
   width="88"
   height="88"><metadata
     id="metadata36"><rdf:RDF><cc:Work
         rdf:about=""><dc:format>image/svg+xml</dc:format><dc:type
           rdf:resource="http://purl.org/dc/dcmitype/StillImage" /><dc:title></dc:title></cc:Work></rdf:RDF></metadata><defs
     id="defs34" /><sodipodi:namedview
     pagecolor="#ffffff"
     bordercolor="#666666"
     borderopacity="1"
     objecttolerance="10"
     gridtolerance="10"
     guidetolerance="10"
     inkscape:pageopacity="0"
     inkscape:pageshadow="2"
     inkscape:window-width="1298"
     inkscape:window-height="856"
     id="namedview32"
     showgrid="false"
     inkscape:zoom="2"
     inkscape:cx="-103.60818"
     inkscape:cy="29.20427"
     inkscape:window-x="0"
     inkscape:window-y="0"
     inkscape:window-maximized="0"
     inkscape:current-layer="g6"
     fit-margin-top="0"
     fit-margin-left="0"
     fit-margin-right="0"
     fit-margin-bottom="0" /><g
     id="g4"
     transform="translate(-3,-3.875)"><g
       id="g6"
       transform="translate(-1,-0.125)"><path
         d="m 48,65 c 6.6,0 12,-5.4 12,-12 0,-6.6 -5.4,-12 -12,-12 -6.6,0 -12,5.4 -12,12 0,6.6 5.4,12 12,12 z m 0,-20 c 4.4,0 8,3.6 8,8 0,4.4 -3.6,8 -8,8 -4.4,0 -8,-3.6 -8,-8 0,-4.4 3.6,-8 8,-8 z"
         id="path8"
         inkscape:connector-curvature="0" /><path
         d="M 71,82.2 C 71,74.8 65.2,68.6 57.9,68.1 L 57,68 56.4,68.6 C 54.1,70.8 51.1,72 48,72 44.9,72 41.9,70.8 39.6,68.6 L 39,68 38.1,68 C 30.8,68.6 25,74.8 25,82.2 l 0,9.8 46,0 0,-9.8 z m -4,5.8 -38,0 0,-5.8 c 0,-5 3.7,-9.3 8.6,-10 2.9,2.4 6.5,3.8 10.4,3.8 3.9,0 7.5,-1.4 10.4,-3.9 4.9,0.8 8.6,5 8.6,10 l 0,5.9 z"
         id="path10"
         inkscape:connector-curvature="0" /><path
         d="m 64,57 c 0,5.5 4.5,10 10,10 5.5,0 10,-4.5 10,-10 0,-5.5 -4.5,-10 -10,-10 -5.5,0 -10,4.5 -10,10 z m 16,0 c 0,3.3 -2.7,6 -6,6 -3.3,0 -6,-2.7 -6,-6 0,-3.3 2.7,-6 6,-6 3.3,0 6,2.7 6,6 z"
         id="path12"
         inkscape:connector-curvature="0" /><path
         d="m 82,70 -1.9,0 -0.6,0.6 C 78,72.2 76.2,73 74,73 l 0,4 c 3,0 5.7,-1 7.8,-3 l 0.2,0 c 3.3,0 6,2.7 6,6 l 0,4 -14,0 0,4 18,0 0,-8 C 92,74.5 87.5,70 82,70 Z"
         id="path14"
         inkscape:connector-curvature="0" /><path
         d="m 22,47 c -5.5,0 -10,4.5 -10,10 0,5.5 4.5,10 10,10 5.5,0 10,-4.5 10,-10 0,-5.5 -4.5,-10 -10,-10 z m 0,16 c -3.3,0 -6,-2.7 -6,-6 0,-3.3 2.7,-6 6,-6 3.3,0 6,2.7 6,6 0,3.3 -2.7,6 -6,6 z"
         id="path16"
         inkscape:connector-curvature="0" /><path
         d="M 22,84 8,84 8,80 c 0,-3.3 2.7,-6 6,-6 l 0.2,0 c 2.2,2 4.8,3 7.8,3 l 0,-4 c -2.2,0 -4.1,-0.8 -5.6,-2.4 L 15.8,70 14,70 C 8.5,70 4,74.5 4,80 l 0,8 18,0 0,-4 z"
         id="path18"
         inkscape:connector-curvature="0" /><path
         d="m 8,40 4.9,0 4.3,7.2 3.4,-7.2 5.4,0 c 2.2,0 4,-1.8 4,-4 l 0,-9 c 0,-2.2 -1.8,-4 -4,-4 L 8,23 c -2.2,0 -4,1.8 -4,4 l 0,9 c 0,2.2 1.8,4 4,4 z m 0,-13 18,0 0,9 -7.9,0 -1.3,2.8 L 15.1,36 8,36 8,27 Z"
         id="path20"
         inkscape:connector-curvature="0" /><path
         d="m 38,33 16.7,0 4.1,9.5 5.4,-9.5 8.8,0 c 2.2,0 4,-1.8 4,-4 L 77,8 C 77,5.8 75.2,4 73,4 L 38,4 c -2.2,0 -4,1.8 -4,4 l 0,21 c 0,2.2 1.8,4 4,4 z M 38,8 73,8 73,29 61.8,29 59.2,33.5 57.3,29 38,29 38,8 Z"
         id="path22"
         inkscape:connector-curvature="0" /><path
         style="fill:#000000"
         d="m 14.886455,34.392001 c -0.169095,-0.04796 -0.316867,-0.192281 -0.368689,-0.360064 -0.01777,-0.05753 -0.03256,-0.120116 -0.03286,-0.139073 -3.02e-4,-0.01896 0.07336,-0.467204 0.163687,-0.996103 l 0.164236,-0.961634 -0.344493,-0.340393 c -0.189472,-0.187216 -0.505805,-0.498614 -0.702964,-0.691995 -0.413407,-0.405486 -0.438613,-0.441628 -0.449417,-0.644407 -0.0086,-0.162163 0.03062,-0.276629 0.134505,-0.392175 0.125612,-0.139712 0.158452,-0.149027 0.908434,-0.25768 0.365731,-0.05298 0.791234,-0.114797 0.945563,-0.13736 0.154329,-0.02256 0.293929,-0.04994 0.310221,-0.06084 0.01629,-0.0109 0.216542,-0.399512 0.445,-0.863583 0.456332,-0.926953 0.483773,-0.97109 0.656484,-1.055903 0.07856,-0.03858 0.111173,-0.04501 0.228265,-0.04501 0.117093,0 0.149704,0.0064 0.228266,0.04501 0.172711,0.08481 0.200152,0.12895 0.656484,1.055903 0.228458,0.464071 0.428413,0.852478 0.444345,0.863127 0.01593,0.01065 0.454817,0.0814 0.975302,0.157234 1.060272,0.15447 1.059319,0.15423 1.189571,0.299102 0.103886,0.115546 0.143145,0.230012 0.134505,0.392175 -0.01076,0.201987 -0.03462,0.235992 -0.456745,0.651209 -0.201967,0.198659 -0.51862,0.510683 -0.703672,0.693387 l -0.336459,0.332188 0.164237,0.961639 c 0.09033,0.528902 0.16399,0.977151 0.163688,0.996109 -3.02e-4,0.01896 -0.01518,0.08184 -0.03306,0.139738 -0.08301,0.26876 -0.382388,0.434803 -0.645857,0.35821 -0.04924,-0.01431 -0.412896,-0.196292 -0.808117,-0.404394 -0.896308,-0.471945 -0.931547,-0.489636 -0.975312,-0.489636 -0.01968,0 -0.368813,0.174914 -0.775861,0.388698 -1.046624,0.549693 -0.966418,0.511613 -1.095336,0.520028 -0.06485,0.0042 -0.141165,-0.0014 -0.183951,-0.01351 z m 0.30246,-0.483862 c 0.07717,-0.03894 0.451294,-0.234456 0.83139,-0.434489 0.380096,-0.200032 0.722073,-0.374295 0.75995,-0.38725 0.08104,-0.02772 0.226903,-0.0305 0.315096,-0.006 0.03439,0.0095 0.390321,0.190094 0.790956,0.401211 0.400635,0.211117 0.780231,0.409937 0.843547,0.441823 0.127301,0.06411 0.174418,0.06422 0.21616,4.92e-4 0.0235,-0.03586 0.01474,-0.0987 -0.131598,-0.943958 -0.170244,-0.983366 -0.180978,-1.090403 -0.122245,-1.21894 0.01818,-0.03978 0.05003,-0.09417 0.07079,-0.120865 0.02076,-0.0267 0.339694,-0.343815 0.70874,-0.704704 0.622136,-0.608383 0.670994,-0.660117 0.670994,-0.710475 0,-0.03871 -0.01039,-0.06101 -0.03616,-0.0776 -0.04276,-0.02754 -0.01501,-0.02268 -0.654922,-0.114622 -1.215952,-0.174702 -1.271016,-0.183935 -1.361619,-0.228299 -0.157252,-0.077 -0.179327,-0.11293 -0.63055,-1.026346 -0.230406,-0.466413 -0.430815,-0.861168 -0.445352,-0.877233 -0.03395,-0.03751 -0.105391,-0.03751 -0.139345,1.5e-5 -0.01454,0.01607 -0.214801,0.410661 -0.445012,0.876864 -0.451018,0.913359 -0.473227,0.949506 -0.63075,1.026638 -0.09304,0.04555 -0.09126,0.04525 -1.310579,0.222076 -0.408604,0.05925 -0.684033,0.106327 -0.706089,0.120674 -0.02574,0.01674 -0.03616,0.03919 -0.03616,0.07789 0,0.05044 0.04853,0.101803 0.670994,0.710213 0.369046,0.360714 0.687979,0.677807 0.70874,0.704649 0.02076,0.02684 0.05262,0.08135 0.07079,0.121127 0.05872,0.12851 0.04798,0.235652 -0.121978,1.21738 -0.162772,0.940195 -0.163092,0.943509 -0.09485,0.983268 0.04407,0.02568 0.06026,0.02154 0.209062,-0.05354 z"
         id="path4277"
         inkscape:connector-curvature="0"
         sodipodi:nodetypes="cccscsscscccscscscssssscssccssscccsccsscsccsscsssccscccssccscc" /><path
         style="fill:#000000"
         d="m 63.187732,26.715483 -0.12685,-0.12685 0,-0.554457 c 0,-0.523133 0.0042,-0.560731 0.07458,-0.665478 0.04795,-0.07138 0.123779,-0.128159 0.212377,-0.159023 0.1212,-0.04222 0.154392,-0.04222 0.275592,0 0.0886,0.03086 0.164425,0.08764 0.212377,0.159023 0.07037,0.104747 0.07458,0.142345 0.07458,0.665478 l 0,0.554457 -0.12685,0.12685 c -0.115043,0.115044 -0.142768,0.126849 -0.297903,0.126849 -0.155135,0 -0.18286,-0.0118 -0.297903,-0.126849 z m -3.885891,-2.202705 c -0.343764,-0.09751 -0.644179,-0.390901 -0.749533,-0.731998 -0.03613,-0.116962 -0.06619,-0.244192 -0.0668,-0.282732 -6.14e-4,-0.03854 0.149132,-0.94981 0.33277,-2.025044 l 0.333887,-1.954971 -0.700344,-0.692008 c -0.38519,-0.380605 -1.028286,-1.013666 -1.429103,-1.406804 -0.840443,-0.82434 -0.891686,-0.897816 -0.91365,-1.31006 -0.01757,-0.329671 0.06225,-0.562377 0.273444,-0.797279 0.255366,-0.284029 0.322128,-0.302966 1.846818,-0.523855 0.743518,-0.107717 1.608552,-0.233378 1.922299,-0.279247 0.313746,-0.04587 0.597547,-0.101529 0.630668,-0.123687 0.03312,-0.02216 0.440223,-0.812195 0.904672,-1.755636 0.927708,-1.884467 0.983495,-1.974196 1.334611,-2.146617 0.159713,-0.07843 0.22601,-0.0915 0.464056,-0.0915 0.238046,0 0.304343,0.01307 0.464056,0.0915 0.351116,0.172421 0.406903,0.26215 1.334611,2.146617 0.464449,0.943441 0.870951,1.73306 0.903339,1.754709 0.03239,0.02165 0.924628,0.165492 1.982759,0.319651 2.155499,0.314033 2.15356,0.313545 2.418359,0.608065 0.211197,0.234902 0.291009,0.467608 0.273444,0.797279 -0.02188,0.410635 -0.07036,0.479766 -0.928547,1.323888 -0.410594,0.403867 -1.054339,1.038202 -1.430544,1.409633 l -0.68401,0.675328 0.333889,1.954982 c 0.183639,1.07524 0.333387,1.986515 0.332772,2.025056 -6.14e-4,0.03854 -0.03086,0.166378 -0.06722,0.284084 -0.16876,0.546381 -0.777383,0.88394 -1.313007,0.72823 -0.10011,-0.0291 -0.839404,-0.399057 -1.642875,-0.82212 -1.822165,-0.95945 -1.893805,-0.995416 -1.982778,-0.995416 -0.04,0 -0.749785,0.355595 -1.577301,0.790211 -2.127753,1.117508 -1.964696,1.040094 -2.226783,1.0572 -0.131838,0.0086 -0.286984,-0.0028 -0.37396,-0.02746 z m 0.614892,-0.983675 c 0.156881,-0.07916 0.917466,-0.476642 1.690189,-0.883302 0.772723,-0.40666 1.467952,-0.76093 1.544954,-0.787268 0.164744,-0.05635 0.461287,-0.06201 0.640581,-0.01223 0.06991,0.01941 0.79351,0.386455 1.607988,0.81565 0.814478,0.429194 1.586185,0.833389 1.714903,0.898211 0.258799,0.130329 0.354587,0.130557 0.439447,0.001 0.04777,-0.0729 0.02996,-0.200654 -0.267535,-1.919036 -0.346099,-1.999151 -0.367922,-2.216754 -0.248519,-2.478065 0.03695,-0.08087 0.101715,-0.191438 0.14392,-0.245715 0.04221,-0.05428 0.690586,-0.698966 1.440846,-1.432642 1.264781,-1.236823 1.364109,-1.341995 1.364109,-1.444373 0,-0.0787 -0.02112,-0.12402 -0.07351,-0.157764 -0.08693,-0.05599 -0.03052,-0.04611 -1.331436,-0.233023 -2.471991,-0.355163 -2.583934,-0.373933 -2.768127,-0.464123 -0.319689,-0.156537 -0.364566,-0.229583 -1.281889,-2.086529 -0.468408,-0.948204 -0.875832,-1.750728 -0.905387,-1.783386 -0.06902,-0.07626 -0.214255,-0.07625 -0.283283,3e-5 -0.02957,0.03267 -0.436684,0.834861 -0.904696,1.782636 -0.916905,1.856829 -0.962055,1.930316 -1.282294,2.087122 -0.189143,0.09261 -0.185525,0.092 -2.664364,0.451474 -0.830679,0.120463 -1.390619,0.216158 -1.435458,0.245325 -0.05233,0.03404 -0.07351,0.07968 -0.07351,0.15835 0,0.102536 0.09866,0.206963 1.364109,1.443841 0.75026,0.733321 1.398641,1.377959 1.440846,1.432529 0.0422,0.05457 0.106969,0.165382 0.14392,0.246248 0.119378,0.261256 0.09755,0.479072 -0.247976,2.474893 -0.330911,1.911387 -0.331561,1.918124 -0.192825,1.998953 0.0896,0.0522 0.122497,0.04378 0.425005,-0.108855 z m -4.585695,-2.498879 c -0.1116,-0.06805 -0.209761,-0.244884 -0.209761,-0.37787 0,-0.102907 0.06669,-0.240849 0.155139,-0.320895 0.08532,-0.07721 0.906286,-0.350547 1.052412,-0.350393 0.25538,2.62e-4 0.446524,0.220919 0.417149,0.481538 -0.02638,0.234034 -0.127533,0.309909 -0.641539,0.481214 -0.489039,0.162984 -0.623234,0.177977 -0.7734,0.08641 z m 15.522883,-0.08809 c -0.496711,-0.16939 -0.602763,-0.250059 -0.628459,-0.478042 -0.02955,-0.262165 0.16088,-0.482759 0.41698,-0.483029 0.146126,-1.63e-4 0.967093,0.273181 1.052411,0.350393 0.08845,0.08005 0.15514,0.217988 0.15514,0.320895 0,0.132986 -0.09816,0.309817 -0.209761,0.37787 -0.149619,0.09124 -0.314696,0.07275 -0.786311,-0.08809 z M 58.843483,12.359133 c -0.116987,-0.07884 -0.255837,-0.249351 -0.52068,-0.639419 -0.130951,-0.192868 -0.162888,-0.266582 -0.162789,-0.375742 3.1e-4,-0.346555 0.380451,-0.55703 0.666978,-0.36929 0.08244,0.05401 0.551658,0.68984 0.629415,0.852898 0.09658,0.202538 -0.0165,0.467789 -0.239071,0.560787 -0.152287,0.06363 -0.247048,0.05622 -0.373853,-0.02923 z m 8.864874,0.01103 c -0.160061,-0.100466 -0.242923,-0.252604 -0.22639,-0.415664 0.01091,-0.107573 0.07367,-0.218703 0.301499,-0.533888 0.301881,-0.417623 0.356535,-0.469791 0.530098,-0.505986 0.138858,-0.02896 0.364056,0.07719 0.44135,0.208043 0.06485,0.109783 0.07375,0.302083 0.01881,0.406217 -0.07302,0.138391 -0.481349,0.693331 -0.578155,0.785744 -0.131615,0.125643 -0.338028,0.149171 -0.48721,0.05553 z"
         id="path4275"
         inkscape:connector-curvature="0" /><path
         inkscape:connector-curvature="0"
         id="path4279"
         d="m 47.062732,26.715483 -0.12685,-0.12685 0,-0.554457 c 0,-0.523133 0.0042,-0.560731 0.07458,-0.665478 0.04795,-0.07138 0.123779,-0.128159 0.212377,-0.159023 0.1212,-0.04222 0.154392,-0.04222 0.275592,0 0.0886,0.03086 0.164425,0.08764 0.212377,0.159023 0.07037,0.104747 0.07458,0.142345 0.07458,0.665478 l 0,0.554457 -0.12685,0.12685 c -0.115043,0.115044 -0.142768,0.126849 -0.297903,0.126849 -0.155135,0 -0.18286,-0.0118 -0.297903,-0.126849 z m -3.885891,-2.202705 c -0.343764,-0.09751 -0.644179,-0.390901 -0.749533,-0.731998 -0.03613,-0.116962 -0.06619,-0.244192 -0.0668,-0.282732 -6.14e-4,-0.03854 0.149132,-0.94981 0.33277,-2.025044 l 0.333887,-1.954971 -0.700344,-0.692008 c -0.38519,-0.380605 -1.028286,-1.013666 -1.429103,-1.406804 -0.840443,-0.82434 -0.891686,-0.897816 -0.91365,-1.31006 -0.01757,-0.329671 0.06225,-0.562377 0.273444,-0.797279 0.255366,-0.284029 0.322128,-0.302966 1.846818,-0.523855 0.743518,-0.107717 1.608552,-0.233378 1.922299,-0.279247 0.313746,-0.04587 0.597547,-0.101529 0.630668,-0.123687 0.03312,-0.02216 0.440223,-0.812195 0.904672,-1.755636 0.927708,-1.884467 0.983495,-1.974196 1.334611,-2.146617 0.159713,-0.07843 0.22601,-0.0915 0.464056,-0.0915 0.238046,0 0.304343,0.01307 0.464056,0.0915 0.351116,0.172421 0.406903,0.26215 1.334611,2.146617 0.464449,0.943441 0.870951,1.73306 0.903339,1.754709 0.03239,0.02165 0.924628,0.165492 1.982759,0.319651 2.155499,0.314033 2.15356,0.313545 2.418359,0.608065 0.211197,0.234902 0.291009,0.467608 0.273444,0.797279 -0.02188,0.410635 -0.07036,0.479766 -0.928547,1.323888 -0.410594,0.403867 -1.054339,1.038202 -1.430544,1.409633 l -0.68401,0.675328 0.333889,1.954982 c 0.183639,1.07524 0.333387,1.986515 0.332772,2.025056 -6.14e-4,0.03854 -0.03086,0.166378 -0.06722,0.284084 -0.16876,0.546381 -0.777383,0.88394 -1.313007,0.72823 -0.10011,-0.0291 -0.839404,-0.399057 -1.642875,-0.82212 -1.822165,-0.95945 -1.893805,-0.995416 -1.982778,-0.995416 -0.04,0 -0.749785,0.355595 -1.577301,0.790211 -2.127753,1.117508 -1.964696,1.040094 -2.226783,1.0572 -0.131838,0.0086 -0.286984,-0.0028 -0.37396,-0.02746 z m 0.614892,-0.983675 c 0.156881,-0.07916 0.917466,-0.476642 1.690189,-0.883302 0.772723,-0.40666 1.467952,-0.76093 1.544954,-0.787268 0.164744,-0.05635 0.461287,-0.06201 0.640581,-0.01223 0.06991,0.01941 0.79351,0.386455 1.607988,0.81565 0.814478,0.429194 1.586185,0.833389 1.714903,0.898211 0.258799,0.130329 0.354587,0.130557 0.439447,0.001 0.04777,-0.0729 0.02996,-0.200654 -0.267535,-1.919036 -0.346099,-1.999151 -0.367922,-2.216754 -0.248519,-2.478065 0.03695,-0.08087 0.101715,-0.191438 0.14392,-0.245715 0.04221,-0.05428 0.690586,-0.698966 1.440846,-1.432642 1.264781,-1.236823 1.364109,-1.341995 1.364109,-1.444373 0,-0.0787 -0.02112,-0.12402 -0.07351,-0.157764 -0.08693,-0.05599 -0.03052,-0.04611 -1.331436,-0.233023 -2.471991,-0.355163 -2.583934,-0.373933 -2.768127,-0.464123 -0.319689,-0.156537 -0.364566,-0.229583 -1.281889,-2.086529 -0.468408,-0.948204 -0.875832,-1.750728 -0.905387,-1.783386 -0.06902,-0.07626 -0.214255,-0.07625 -0.283283,3e-5 -0.02957,0.03267 -0.436684,0.834861 -0.904696,1.782636 -0.916905,1.856829 -0.962055,1.930316 -1.282294,2.087122 -0.189143,0.09261 -0.185525,0.092 -2.664364,0.451474 -0.830679,0.120463 -1.390619,0.216158 -1.435458,0.245325 -0.05233,0.03404 -0.07351,0.07968 -0.07351,0.15835 0,0.102536 0.09866,0.206963 1.364109,1.443841 0.75026,0.733321 1.398641,1.377959 1.440846,1.432529 0.0422,0.05457 0.106969,0.165382 0.14392,0.246248 0.119378,0.261256 0.09755,0.479072 -0.247976,2.474893 -0.330911,1.911387 -0.331561,1.918124 -0.192825,1.998953 0.0896,0.0522 0.122497,0.04378 0.425005,-0.108855 z m -4.585695,-2.498879 c -0.1116,-0.06805 -0.209761,-0.244884 -0.209761,-0.37787 0,-0.102907 0.06669,-0.240849 0.155139,-0.320895 0.08532,-0.07721 0.906286,-0.350547 1.052412,-0.350393 0.25538,2.62e-4 0.446524,0.220919 0.417149,0.481538 -0.02638,0.234034 -0.127533,0.309909 -0.641539,0.481214 -0.489039,0.162984 -0.623234,0.177977 -0.7734,0.08641 z m 15.522883,-0.08809 c -0.496711,-0.16939 -0.602763,-0.250059 -0.628459,-0.478042 -0.02955,-0.262165 0.16088,-0.482759 0.41698,-0.483029 0.146126,-1.63e-4 0.967093,0.273181 1.052411,0.350393 0.08845,0.08005 0.15514,0.217988 0.15514,0.320895 0,0.132986 -0.09816,0.309817 -0.209761,0.37787 -0.149619,0.09124 -0.314696,0.07275 -0.786311,-0.08809 z M 42.718483,12.359133 c -0.116987,-0.07884 -0.255837,-0.249351 -0.52068,-0.639419 -0.130951,-0.192868 -0.162888,-0.266582 -0.162789,-0.375742 3.1e-4,-0.346555 0.380451,-0.55703 0.666978,-0.36929 0.08244,0.05401 0.551658,0.68984 0.629415,0.852898 0.09658,0.202538 -0.0165,0.467789 -0.239071,0.560787 -0.152287,0.06363 -0.247048,0.05622 -0.373853,-0.02923 z m 8.864874,0.01103 c -0.160061,-0.100466 -0.242923,-0.252604 -0.22639,-0.415664 0.01091,-0.107573 0.07367,-0.218703 0.301499,-0.533888 0.301881,-0.417623 0.356535,-0.469791 0.530098,-0.505986 0.138858,-0.02896 0.364056,0.07719 0.44135,0.208043 0.06485,0.109783 0.07375,0.302083 0.01881,0.406217 -0.07302,0.138391 -0.481349,0.693331 -0.578155,0.785744 -0.131615,0.125643 -0.338028,0.149171 -0.48721,0.05553 z"
         style="fill:#000000" /></g></g></svg>